<svg id="ic_edit" data-name="ic edit" xmlns="http://www.w3.org/2000/svg" xmlns:xlink="http://www.w3.org/1999/xlink" width="20" height="20" viewBox="0 0 20 20">
    <defs>
      <clipPath id="clip-path">
        <rect id="Rectangle_14" data-name="Rectangle 14" width="20" height="20" transform="translate(1380 220)" fill="#a4b9c9"/>
      </clipPath>
    </defs>
    <g id="ic_edit-2" data-name="ic edit" transform="translate(-1380 -220)" clip-path="url(#clip-path)">
      <g id="write" transform="translate(1377.692 217.684)">
        <g id="Group_13" data-name="Group 13">
          <path id="Path_10" data-name="Path 10" d="M17.7,22.316a.77.77,0,0,1,0-1.539h0a.769.769,0,1,1,1.538,0A1.541,1.541,0,0,1,17.7,22.316Z" fill="#a4b9c9"/>
        </g>
        <g id="Group_14" data-name="Group 14">
          <path id="Path_11" data-name="Path 11" d="M18.468,21.546a.77.77,0,0,1-.77-.77V13.23a.77.77,0,0,1,1.539,0v7.547A.77.77,0,0,1,18.468,21.546Z" fill="#a4b9c9"/>
        </g>
        <g id="Group_15" data-name="Group 15">
          <path id="Path_12" data-name="Path 12" d="M17.7,22.316H3.848a.77.77,0,1,1,0-1.539H17.7a.77.77,0,1,1,0,1.539Z" fill="#a4b9c9"/>
        </g>
        <g id="Group_16" data-name="Group 16">
          <path id="Path_13" data-name="Path 13" d="M3.848,22.316a1.541,1.541,0,0,1-1.539-1.539.77.77,0,1,1,1.539,0h0a.769.769,0,1,1,0,1.538Z" fill="#a4b9c9"/>
        </g>
        <g id="Group_17" data-name="Group 17">
          <path id="Path_14" data-name="Path 14" d="M3.078,21.546a.77.77,0,0,1-.77-.77V6.926a.77.77,0,0,1,1.539,0V20.777A.77.77,0,0,1,3.078,21.546Z" fill="#a4b9c9"/>
        </g>
        <g id="Group_18" data-name="Group 18">
          <path id="Path_15" data-name="Path 15" d="M3.078,7.7a.769.769,0,0,1-.769-.77A1.541,1.541,0,0,1,3.848,5.387a.77.77,0,0,1,0,1.539h0A.769.769,0,0,1,3.078,7.7Z" fill="#a4b9c9"/>
        </g>
        <g id="Group_19" data-name="Group 19">
          <path id="Path_16" data-name="Path 16" d="M11.395,6.926H3.848a.77.77,0,1,1,0-1.539h7.547a.77.77,0,0,1,0,1.539Z" fill="#a4b9c9"/>
        </g>
        <g id="Group_20" data-name="Group 20">
          <path id="Path_17" data-name="Path 17" d="M10.747,11.927a.77.77,0,0,1-.544-1.314L17.718,3.1a.769.769,0,1,1,1.088,1.088L11.291,11.7a.766.766,0,0,1-.544.225Z" fill="#a4b9c9"/>
        </g>
        <g id="Group_21" data-name="Group 21">
          <path id="Path_18" data-name="Path 18" d="M10,15.39a.753.753,0,0,1-.162-.017.769.769,0,0,1-.591-.913L9.994,11a.769.769,0,0,1,1.5.322l-.743,3.464A.77.77,0,0,1,10,15.39Z" fill="#a4b9c9"/>
        </g>
        <g id="Group_22" data-name="Group 22">
          <path id="Path_19" data-name="Path 19" d="M13.467,14.647a.77.77,0,0,1-.544-1.314l7.515-7.515a.769.769,0,1,1,1.088,1.088l-7.515,7.515a.766.766,0,0,1-.544.225Z" fill="#a4b9c9"/>
        </g>
        <g id="Group_23" data-name="Group 23">
          <path id="Path_20" data-name="Path 20" d="M10,15.39a.769.769,0,0,1-.161-1.522l3.464-.743a.769.769,0,1,1,.323,1.5l-3.464.743A.778.778,0,0,1,10,15.39Z" fill="#a4b9c9"/>
        </g>
        <g id="Group_24" data-name="Group 24">
          <path id="Path_21" data-name="Path 21" d="M19.623,8.492a.766.766,0,0,1-.544-.225L16.358,5.546a.769.769,0,0,1,1.088-1.088l2.721,2.721a.77.77,0,0,1-.544,1.314Z" fill="#a4b9c9"/>
        </g>
        <g id="Group_25" data-name="Group 25">
          <path id="Path_22" data-name="Path 22" d="M20.983,7.131a.77.77,0,0,1-.544-1.314,1.172,1.172,0,0,0,0-1.631,1.2,1.2,0,0,0-1.633,0A.77.77,0,1,1,17.717,3.1a2.693,2.693,0,0,1,3.809,3.809.764.764,0,0,1-.543.225Z" fill="#a4b9c9"/>
        </g>
      </g>
    </g>
  </svg>
  