<svg id="ic_save" data-name="ic save" xmlns="http://www.w3.org/2000/svg" xmlns:xlink="http://www.w3.org/1999/xlink" width="20" height="20" viewBox="0 0 20 20">
    <defs>
      <clipPath id="clip-path">
        <rect id="Rectangle_37" data-name="Rectangle 37" width="20" height="20" transform="translate(4570 -5714)" fill="#a4b9c9"/>
      </clipPath>
    </defs>
    <g id="ic_save-2" data-name="ic save" transform="translate(-4570 5714)" clip-path="url(#clip-path)">
      <g id="save" transform="translate(4568 -5716)">
        <path id="Path_47" data-name="Path 47" d="M22,21V8a1,1,0,0,0-.293-.707l-5-5A1,1,0,0,0,16,2H3A1,1,0,0,0,2,3V21a1,1,0,0,0,1,1H21A1,1,0,0,0,22,21Zm-7-1H9V15h6Zm5,0H17V14a1,1,0,0,0-1-1H8a1,1,0,0,0-1,1v6H4V4H15.586L20,8.414Z" fill="#a4b9c9"/>
        <path id="Path_48" data-name="Path 48" d="M12,8H8a1,1,0,0,0,0,2h4a1,1,0,0,0,0-2Z" fill="#a4b9c9"/>
      </g>
    </g>
  </svg>
  